<?xml version="1.0" encoding="UTF-8"?>
<svg width="546px" height="409px" viewBox="0 0 546 409" version="1.1" xmlns="http://www.w3.org/2000/svg" xmlns:xlink="http://www.w3.org/1999/xlink">
    <!-- Generator: Sketch 52.6 (67491) - http://www.bohemiancoding.com/sketch -->
    <title>Group</title>
    <desc>Created with Sketch.</desc>
    <g id="Page-1" stroke="none" stroke-width="1" fill="none" fill-rule="evenodd">
        <g id="Group">
            <rect id="Rectangle" fill="#FFFFFF" x="19" y="23" width="508" height="370"></rect>
            <path d="M494.8125,0 C523.072266,0 546,22.8997396 546,51.125 L546,357.875 C546,386.10026 523.072266,409 494.8125,409 L51.1875,409 C22.9277344,409 0,386.10026 0,357.875 L0,51.125 C0,22.8997396 22.9277344,0 51.1875,0 L494.8125,0 Z M51.0714286,34 C41.6823512,34 34,41.6822247 34,51.0711475 L34,95.2431583 C57.3669346,114.981673 90.7627084,142.188814 194.684405,224.663587 C212.610238,238.960047 248.24622,273.42326 273,272.996064 C297.75378,273.42326 333.283482,238.960047 351.315595,224.663587 C455.237292,142.188814 488.633065,114.981673 512,95.2431583 L512,51.0711475 C512,41.6822247 504.317649,34 494.928571,34 L51.0714286,34 Z M494.928571,375 C504.317649,375 512,367.343684 512,357.986425 L512,140 C487.673423,159.884823 449.262708,190.614969 372.547559,251.332787 C350.141309,269.196833 311.837917,307.264498 273,306.945701 C233.949524,307.158579 195.325208,268.771078 173.452441,251.332787 C96.7372916,190.614969 58.3265773,159.884823 34,140 L34,357.986425 C34,367.343684 41.6823512,375 51.0714286,375 L494.928571,375 Z" id="envelope" fill="#000000"></path>
            <path d="M307.952425,196.866465 L309.019298,201.349105 C309.470194,203.242526 308.299752,205.143671 306.404329,205.585984 C303.039488,206.371333 297.44849,207.374978 290.853276,207.374978 C259.981767,207.374978 236.51228,188.844462 230.193439,160.500089 L222.515617,160.500089 C220.574131,160.500089 219,158.925958 219,156.984473 L219,154.640728 C219,152.699243 220.574131,151.125112 222.515617,151.125112 L228.748912,151.125112 C228.387852,146.972919 228.207036,137.61053 228.929443,132.375156 L222.515617,132.375156 C220.574131,132.375156 219,130.801025 219,128.85954 L219,126.515795 C219,124.57431 220.574131,123.000179 222.515617,123.000179 L230.5545,123.000179 C237.595174,96.1000469 261.064948,76.1252906 290.853276,76.1252906 C296.363593,76.1252906 301.154936,76.8436917 304.22824,77.4533743 C306.200911,77.8444752 307.436583,79.8162875 306.941628,81.7652117 L305.790355,86.2987778 C305.327442,88.1206729 303.514416,89.2593573 301.674211,88.8768395 C299.008316,88.3223745 294.986872,87.6797903 290.672746,87.6797903 C267.384074,87.6797903 250.052039,102.419173 243.914015,123.000179 L294.720511,123.000179 C296.928929,123.000179 298.590322,125.012045 298.172899,127.180409 L297.721431,129.524154 C297.418449,131.097999 295.871784,132.375156 294.269329,132.375156 L241.928183,132.375156 C241.206063,138.332936 241.206063,144.987088 241.747939,151.125112 L289.665382,151.125112 C291.8738,151.125112 293.535192,153.136978 293.11777,155.305342 L292.666302,157.649087 C292.36332,159.222932 290.816655,160.500089 289.213913,160.500089 L243.733198,160.500089 C249.330204,182.164276 267.203258,195.820478 290.853276,195.820478 C296.167327,195.820478 300.759544,194.978481 303.69323,194.26666 C305.590084,193.806323 307.500384,194.967895 307.952425,196.866465 Z" id="euro-sign" fill="#E36983"></path>
        </g>
    </g>
</svg>